<mxfile host="app.diagrams.net" agent="Mozilla/5.0 (Windows NT 10.0; Win64; x64) AppleWebKit/537.36 (KHTML, like Gecko) Chrome/140.0.0.0 Safari/537.36 Edg/140.0.0.0" version="28.2.3">
  <diagram name="Page-1" id="JOgq9r7F85_2EU9C6ghr">
    <mxGraphModel grid="1" page="1" gridSize="10" guides="1" tooltips="1" connect="1" arrows="1" fold="1" pageScale="1" pageWidth="850" pageHeight="1100" math="0" shadow="0">
      <root>
        <mxCell id="0" />
        <mxCell id="1" parent="0" />
        <mxCell id="DvEKUUhxRUm7RS5CKiI7-45" value="" style="rounded=1;whiteSpace=wrap;html=1;fillColor=none;" vertex="1" parent="1">
          <mxGeometry x="560" y="97" width="550" height="290" as="geometry" />
        </mxCell>
        <mxCell id="DvEKUUhxRUm7RS5CKiI7-43" value="" style="rounded=1;whiteSpace=wrap;html=1;fillColor=none;" vertex="1" parent="1">
          <mxGeometry x="-30" y="95" width="564" height="295" as="geometry" />
        </mxCell>
        <mxCell id="DvEKUUhxRUm7RS5CKiI7-8" value="crm_prd_info" style="swimlane;fontStyle=0;childLayout=stackLayout;horizontal=1;startSize=30;horizontalStack=0;resizeParent=1;resizeParentMax=0;resizeLast=0;collapsible=1;marginBottom=0;whiteSpace=wrap;html=1;fillColor=#dae8fc;strokeColor=#6c8ebf;" vertex="1" parent="1">
          <mxGeometry x="335" y="140" width="140" height="90" as="geometry" />
        </mxCell>
        <mxCell id="DvEKUUhxRUm7RS5CKiI7-9" value="prd_key" style="text;strokeColor=none;fillColor=none;align=left;verticalAlign=middle;spacingLeft=4;spacingRight=4;overflow=hidden;points=[[0,0.5],[1,0.5]];portConstraint=eastwest;rotatable=0;whiteSpace=wrap;html=1;" vertex="1" parent="DvEKUUhxRUm7RS5CKiI7-8">
          <mxGeometry y="30" width="140" height="30" as="geometry" />
        </mxCell>
        <mxCell id="Ry5QbG0tfH8gpo0eknUO-1" value="Product" style="text;html=1;strokeColor=#23445d;fillColor=#bac8d3;align=center;verticalAlign=middle;whiteSpace=wrap;overflow=hidden;" vertex="1" parent="DvEKUUhxRUm7RS5CKiI7-8">
          <mxGeometry y="60" width="140" height="30" as="geometry" />
        </mxCell>
        <mxCell id="DvEKUUhxRUm7RS5CKiI7-10" value="Current &amp;amp; History Product Information" style="text;html=1;align=center;verticalAlign=middle;whiteSpace=wrap;rounded=0;strokeColor=none;fillColor=default;" vertex="1" parent="1">
          <mxGeometry x="290" y="110" width="230" height="30" as="geometry" />
        </mxCell>
        <mxCell id="DvEKUUhxRUm7RS5CKiI7-15" style="edgeStyle=orthogonalEdgeStyle;rounded=0;orthogonalLoop=1;jettySize=auto;html=1;exitX=1;exitY=0.5;exitDx=0;exitDy=0;entryX=0;entryY=0.5;entryDx=0;entryDy=0;" edge="1" parent="1" source="DvEKUUhxRUm7RS5CKiI7-14" target="DvEKUUhxRUm7RS5CKiI7-4">
          <mxGeometry relative="1" as="geometry" />
        </mxCell>
        <mxCell id="DvEKUUhxRUm7RS5CKiI7-16" style="edgeStyle=orthogonalEdgeStyle;rounded=0;orthogonalLoop=1;jettySize=auto;html=1;exitX=1;exitY=0.5;exitDx=0;exitDy=0;entryX=0;entryY=0.5;entryDx=0;entryDy=0;" edge="1" parent="1" source="DvEKUUhxRUm7RS5CKiI7-12" target="DvEKUUhxRUm7RS5CKiI7-9">
          <mxGeometry relative="1" as="geometry" />
        </mxCell>
        <mxCell id="DvEKUUhxRUm7RS5CKiI7-17" value="" style="group" vertex="1" connectable="0" parent="1">
          <mxGeometry x="340" y="240" width="140" height="86" as="geometry" />
        </mxCell>
        <mxCell id="DvEKUUhxRUm7RS5CKiI7-7" value="customer_info" style="text;html=1;align=center;verticalAlign=middle;whiteSpace=wrap;rounded=0;fillColor=default;" vertex="1" parent="DvEKUUhxRUm7RS5CKiI7-17">
          <mxGeometry x="4" width="90" height="34" as="geometry" />
        </mxCell>
        <mxCell id="DvEKUUhxRUm7RS5CKiI7-3" value="crm_cust_info" style="swimlane;fontStyle=0;childLayout=stackLayout;horizontal=1;startSize=30;horizontalStack=0;resizeParent=1;resizeParentMax=0;resizeLast=0;collapsible=1;marginBottom=0;whiteSpace=wrap;html=1;fillColor=#dae8fc;strokeColor=#6c8ebf;" vertex="1" parent="DvEKUUhxRUm7RS5CKiI7-17">
          <mxGeometry x="-17" y="26" width="140" height="90" as="geometry" />
        </mxCell>
        <mxCell id="DvEKUUhxRUm7RS5CKiI7-4" value="cust_id" style="text;strokeColor=none;fillColor=none;align=left;verticalAlign=middle;spacingLeft=4;spacingRight=4;overflow=hidden;points=[[0,0.5],[1,0.5]];portConstraint=eastwest;rotatable=0;whiteSpace=wrap;html=1;" vertex="1" parent="DvEKUUhxRUm7RS5CKiI7-3">
          <mxGeometry y="30" width="140" height="30" as="geometry" />
        </mxCell>
        <mxCell id="DvEKUUhxRUm7RS5CKiI7-24" value="cst_key" style="text;strokeColor=none;fillColor=none;align=left;verticalAlign=middle;spacingLeft=4;spacingRight=4;overflow=hidden;points=[[0,0.5],[1,0.5]];portConstraint=eastwest;rotatable=0;whiteSpace=wrap;html=1;" vertex="1" parent="DvEKUUhxRUm7RS5CKiI7-3">
          <mxGeometry y="60" width="140" height="30" as="geometry" />
        </mxCell>
        <mxCell id="DvEKUUhxRUm7RS5CKiI7-21" value="" style="group" vertex="1" connectable="0" parent="1">
          <mxGeometry x="10" y="140" width="265" height="116" as="geometry" />
        </mxCell>
        <mxCell id="DvEKUUhxRUm7RS5CKiI7-11" value="crm_sales_details" style="swimlane;fontStyle=0;childLayout=stackLayout;horizontal=1;startSize=30;horizontalStack=0;resizeParent=1;resizeParentMax=0;resizeLast=0;collapsible=1;marginBottom=0;whiteSpace=wrap;html=1;fillColor=#dae8fc;strokeColor=#6c8ebf;" vertex="1" parent="DvEKUUhxRUm7RS5CKiI7-21">
          <mxGeometry x="50" y="26" width="140" height="90" as="geometry" />
        </mxCell>
        <mxCell id="DvEKUUhxRUm7RS5CKiI7-12" value="prd_key" style="text;strokeColor=none;fillColor=none;align=left;verticalAlign=middle;spacingLeft=4;spacingRight=4;overflow=hidden;points=[[0,0.5],[1,0.5]];portConstraint=eastwest;rotatable=0;whiteSpace=wrap;html=1;" vertex="1" parent="DvEKUUhxRUm7RS5CKiI7-11">
          <mxGeometry y="30" width="140" height="30" as="geometry" />
        </mxCell>
        <mxCell id="DvEKUUhxRUm7RS5CKiI7-14" value="cst_id" style="text;strokeColor=none;fillColor=none;align=left;verticalAlign=middle;spacingLeft=4;spacingRight=4;overflow=hidden;points=[[0,0.5],[1,0.5]];portConstraint=eastwest;rotatable=0;whiteSpace=wrap;html=1;" vertex="1" parent="DvEKUUhxRUm7RS5CKiI7-11">
          <mxGeometry y="60" width="140" height="30" as="geometry" />
        </mxCell>
        <mxCell id="DvEKUUhxRUm7RS5CKiI7-13" value="Transactional Records about Sales &amp;amp; Orders" style="text;html=1;align=center;verticalAlign=middle;whiteSpace=wrap;rounded=0;fillColor=default;" vertex="1" parent="DvEKUUhxRUm7RS5CKiI7-21">
          <mxGeometry width="265" height="30" as="geometry" />
        </mxCell>
        <mxCell id="DvEKUUhxRUm7RS5CKiI7-22" value="" style="group" vertex="1" connectable="0" parent="1">
          <mxGeometry x="620" y="210" width="415" height="140" as="geometry" />
        </mxCell>
        <mxCell id="DvEKUUhxRUm7RS5CKiI7-18" value="erp_cust_az12" style="swimlane;fontStyle=0;childLayout=stackLayout;horizontal=1;startSize=30;horizontalStack=0;resizeParent=1;resizeParentMax=0;resizeLast=0;collapsible=1;marginBottom=0;whiteSpace=wrap;html=1;fillColor=#fff2cc;strokeColor=#d6b656;" vertex="1" parent="DvEKUUhxRUm7RS5CKiI7-22">
          <mxGeometry x="45" y="30" width="140" height="60" as="geometry" />
        </mxCell>
        <mxCell id="DvEKUUhxRUm7RS5CKiI7-19" value="cid" style="text;strokeColor=none;fillColor=none;align=left;verticalAlign=middle;spacingLeft=4;spacingRight=4;overflow=hidden;points=[[0,0.5],[1,0.5]];portConstraint=eastwest;rotatable=0;whiteSpace=wrap;html=1;" vertex="1" parent="DvEKUUhxRUm7RS5CKiI7-18">
          <mxGeometry y="30" width="140" height="30" as="geometry" />
        </mxCell>
        <mxCell id="DvEKUUhxRUm7RS5CKiI7-20" value="Extra customer information( Birth dates)" style="text;html=1;align=center;verticalAlign=middle;whiteSpace=wrap;rounded=0;strokeColor=none;fillColor=default;" vertex="1" parent="DvEKUUhxRUm7RS5CKiI7-22">
          <mxGeometry width="230" height="30" as="geometry" />
        </mxCell>
        <mxCell id="DvEKUUhxRUm7RS5CKiI7-25" value="" style="group" vertex="1" connectable="0" parent="DvEKUUhxRUm7RS5CKiI7-22">
          <mxGeometry x="185" y="50" width="230" height="90" as="geometry" />
        </mxCell>
        <mxCell id="DvEKUUhxRUm7RS5CKiI7-26" value="erp_loc_az10" style="swimlane;fontStyle=0;childLayout=stackLayout;horizontal=1;startSize=30;horizontalStack=0;resizeParent=1;resizeParentMax=0;resizeLast=0;collapsible=1;marginBottom=0;whiteSpace=wrap;html=1;fillColor=#fff2cc;strokeColor=#d6b656;" vertex="1" parent="DvEKUUhxRUm7RS5CKiI7-25">
          <mxGeometry x="45" y="30" width="140" height="60" as="geometry" />
        </mxCell>
        <mxCell id="DvEKUUhxRUm7RS5CKiI7-27" value="cid" style="text;strokeColor=none;fillColor=none;align=left;verticalAlign=middle;spacingLeft=4;spacingRight=4;overflow=hidden;points=[[0,0.5],[1,0.5]];portConstraint=eastwest;rotatable=0;whiteSpace=wrap;html=1;" vertex="1" parent="DvEKUUhxRUm7RS5CKiI7-26">
          <mxGeometry y="30" width="140" height="30" as="geometry" />
        </mxCell>
        <mxCell id="DvEKUUhxRUm7RS5CKiI7-28" value="Location of Customers ( Country)" style="text;html=1;align=center;verticalAlign=middle;whiteSpace=wrap;rounded=0;strokeColor=none;fillColor=default;" vertex="1" parent="DvEKUUhxRUm7RS5CKiI7-25">
          <mxGeometry width="230" height="30" as="geometry" />
        </mxCell>
        <mxCell id="Ry5QbG0tfH8gpo0eknUO-4" value="Customer" style="text;html=1;strokeColor=#b46504;fillColor=#fad7ac;align=center;verticalAlign=middle;whiteSpace=wrap;overflow=hidden;" vertex="1" parent="DvEKUUhxRUm7RS5CKiI7-22">
          <mxGeometry x="45" y="90" width="140" height="30" as="geometry" />
        </mxCell>
        <mxCell id="DvEKUUhxRUm7RS5CKiI7-31" style="edgeStyle=orthogonalEdgeStyle;rounded=0;orthogonalLoop=1;jettySize=auto;html=1;exitX=0;exitY=0.5;exitDx=0;exitDy=0;entryX=1;entryY=0.5;entryDx=0;entryDy=0;" edge="1" parent="1" source="DvEKUUhxRUm7RS5CKiI7-19" target="DvEKUUhxRUm7RS5CKiI7-24">
          <mxGeometry relative="1" as="geometry">
            <Array as="points">
              <mxPoint x="590" y="285" />
              <mxPoint x="590" y="341" />
            </Array>
          </mxGeometry>
        </mxCell>
        <mxCell id="DvEKUUhxRUm7RS5CKiI7-33" value="" style="group" vertex="1" connectable="0" parent="1">
          <mxGeometry x="770" y="120" width="230" height="90" as="geometry" />
        </mxCell>
        <mxCell id="DvEKUUhxRUm7RS5CKiI7-34" value="erp_cust_az12" style="swimlane;fontStyle=0;childLayout=stackLayout;horizontal=1;startSize=30;horizontalStack=0;resizeParent=1;resizeParentMax=0;resizeLast=0;collapsible=1;marginBottom=0;whiteSpace=wrap;html=1;fillColor=#fff2cc;strokeColor=#d6b656;" vertex="1" parent="DvEKUUhxRUm7RS5CKiI7-33">
          <mxGeometry x="110" y="30" width="140" height="90" as="geometry" />
        </mxCell>
        <mxCell id="DvEKUUhxRUm7RS5CKiI7-35" value="id" style="text;strokeColor=none;fillColor=none;align=left;verticalAlign=middle;spacingLeft=4;spacingRight=4;overflow=hidden;points=[[0,0.5],[1,0.5]];portConstraint=eastwest;rotatable=0;whiteSpace=wrap;html=1;" vertex="1" parent="DvEKUUhxRUm7RS5CKiI7-34">
          <mxGeometry y="30" width="140" height="30" as="geometry" />
        </mxCell>
        <mxCell id="Ry5QbG0tfH8gpo0eknUO-3" value="Product" style="text;strokeColor=#23445d;fillColor=#bac8d3;align=center;verticalAlign=middle;spacingLeft=4;spacingRight=4;overflow=hidden;points=[[0,0.5],[1,0.5]];portConstraint=eastwest;rotatable=0;whiteSpace=wrap;html=1;" vertex="1" parent="DvEKUUhxRUm7RS5CKiI7-34">
          <mxGeometry y="60" width="140" height="30" as="geometry" />
        </mxCell>
        <mxCell id="DvEKUUhxRUm7RS5CKiI7-36" value="Product Categories" style="text;html=1;align=center;verticalAlign=middle;whiteSpace=wrap;rounded=0;strokeColor=none;fillColor=default;" vertex="1" parent="DvEKUUhxRUm7RS5CKiI7-33">
          <mxGeometry x="100" width="160" height="30" as="geometry" />
        </mxCell>
        <mxCell id="DvEKUUhxRUm7RS5CKiI7-39" style="edgeStyle=orthogonalEdgeStyle;rounded=0;orthogonalLoop=1;jettySize=auto;html=1;exitX=0;exitY=0.5;exitDx=0;exitDy=0;entryX=1;entryY=0.5;entryDx=0;entryDy=0;" edge="1" parent="1" source="DvEKUUhxRUm7RS5CKiI7-35" target="DvEKUUhxRUm7RS5CKiI7-9">
          <mxGeometry relative="1" as="geometry" />
        </mxCell>
        <mxCell id="DvEKUUhxRUm7RS5CKiI7-44" value="&lt;font style=&quot;font-size: 24px;&quot;&gt;CRM&lt;/font&gt;" style="rounded=1;whiteSpace=wrap;html=1;fillColor=#dae8fc;strokeColor=#6c8ebf;" vertex="1" parent="1">
          <mxGeometry x="180" y="79" width="120" height="30" as="geometry" />
        </mxCell>
        <mxCell id="DvEKUUhxRUm7RS5CKiI7-48" value="&lt;font style=&quot;font-size: 24px;&quot;&gt;ERP&lt;/font&gt;" style="rounded=1;whiteSpace=wrap;html=1;fillColor=#fff2cc;strokeColor=#d6b656;" vertex="1" parent="1">
          <mxGeometry x="780" y="80" width="120" height="30" as="geometry" />
        </mxCell>
        <mxCell id="DvEKUUhxRUm7RS5CKiI7-49" value="" style="group" vertex="1" connectable="0" parent="1">
          <mxGeometry x="-126" y="-23" width="463" height="50" as="geometry" />
        </mxCell>
        <mxCell id="DvEKUUhxRUm7RS5CKiI7-41" value="&lt;font style=&quot;font-size: 10px;&quot;&gt;how tables are related&lt;/font&gt;" style="text;html=1;align=center;verticalAlign=middle;whiteSpace=wrap;rounded=0;fillColor=default;" vertex="1" parent="DvEKUUhxRUm7RS5CKiI7-49">
          <mxGeometry x="323" y="20" width="140" height="30" as="geometry" />
        </mxCell>
        <mxCell id="DvEKUUhxRUm7RS5CKiI7-40" value="&lt;b&gt;&lt;font style=&quot;font-size: 36px;&quot;&gt;Integration Model&lt;/font&gt;&lt;/b&gt;" style="text;html=1;align=center;verticalAlign=middle;whiteSpace=wrap;rounded=0;" vertex="1" parent="DvEKUUhxRUm7RS5CKiI7-49">
          <mxGeometry width="408" height="30" as="geometry" />
        </mxCell>
        <mxCell id="Ry5QbG0tfH8gpo0eknUO-2" value="Customer" style="text;html=1;strokeColor=#b46504;fillColor=#fad7ac;align=center;verticalAlign=middle;whiteSpace=wrap;overflow=hidden;" vertex="1" parent="1">
          <mxGeometry x="323" y="357" width="140" height="30" as="geometry" />
        </mxCell>
        <mxCell id="Ry5QbG0tfH8gpo0eknUO-5" value="Customer" style="text;html=1;strokeColor=#b46504;fillColor=#fad7ac;align=center;verticalAlign=middle;whiteSpace=wrap;overflow=hidden;" vertex="1" parent="1">
          <mxGeometry x="850" y="350" width="140" height="30" as="geometry" />
        </mxCell>
        <mxCell id="Ry5QbG0tfH8gpo0eknUO-7" style="edgeStyle=orthogonalEdgeStyle;rounded=0;orthogonalLoop=1;jettySize=auto;html=1;entryX=1;entryY=0.5;entryDx=0;entryDy=0;" edge="1" parent="1" source="DvEKUUhxRUm7RS5CKiI7-27" target="DvEKUUhxRUm7RS5CKiI7-24">
          <mxGeometry relative="1" as="geometry">
            <Array as="points">
              <mxPoint x="760" y="341" />
              <mxPoint x="760" y="341" />
            </Array>
          </mxGeometry>
        </mxCell>
        <mxCell id="Ry5QbG0tfH8gpo0eknUO-8" value="Sales" style="text;html=1;strokeColor=#0e8088;fillColor=#b0e3e6;align=center;verticalAlign=middle;whiteSpace=wrap;overflow=hidden;" vertex="1" parent="1">
          <mxGeometry x="60" y="256" width="140" height="30" as="geometry" />
        </mxCell>
      </root>
    </mxGraphModel>
  </diagram>
</mxfile>
